<svg width="102" height="91" viewBox="0 0 102 91" fill="none" xmlns="http://www.w3.org/2000/svg">
<path fill-rule="evenodd" clip-rule="evenodd" d="M69.2516 12.2032C70.1998 14.3429 72.1682 16 74.5085 16H92C97.5229 16 102 20.4772 102 26V81C102 86.5229 97.5229 91 92 91H10C4.47715 91 0 86.5229 0 81V26C0 20.4772 4.47715 16 10 16H26.4915C28.8318 16 30.8002 14.3429 31.7484 12.2032C34.9337 5.01473 42.1312 0 50.5 0C58.8688 0 66.0663 5.01473 69.2516 12.2032Z" fill="#F15822"/>
<path d="M46.0604 24.534C46.4684 24.21 46.6544 24.06 46.6184 24.084C47.7944 23.112 48.7184 22.314 49.3904 21.69C50.0744 21.066 50.6504 20.412 51.1184 19.728C51.5864 19.044 51.8204 18.378 51.8204 17.73C51.8204 17.238 51.7064 16.854 51.4784 16.578C51.2504 16.302 50.9084 16.164 50.4524 16.164C49.9964 16.164 49.6364 16.338 49.3724 16.686C49.1204 17.022 48.9944 17.502 48.9944 18.126H46.0244C46.0484 17.106 46.2644 16.254 46.6724 15.57C47.0924 14.886 47.6384 14.382 48.3104 14.058C48.9944 13.734 49.7504 13.572 50.5784 13.572C52.0064 13.572 53.0804 13.938 53.8004 14.67C54.5324 15.402 54.8984 16.356 54.8984 17.532C54.8984 18.816 54.4604 20.01 53.5844 21.114C52.7084 22.206 51.5924 23.274 50.2364 24.318H55.0964V26.82H46.0604V24.534Z" fill="white"/>
<path d="M48.3743 47.3687C47.7146 47.9125 47.6486 48.8625 48.1698 49.4875C48.8031 50.1062 49.8059 50.1687 50.459 49.5687C53.0834 47.3831 57.3531 47.3831 59.9788 49.5687C60.6365 50.1163 61.636 50.0547 62.214 49.4319C62.4792 49.2 62.6111 48.85 62.6111 48.4937C62.6111 48.0764 62.4297 47.6606 62.0732 47.3644C58.2965 44.2206 52.1479 44.2206 48.3743 47.3687ZM45.2142 44.5937C50.7355 39.7781 59.7149 39.7781 65.2368 44.5937C65.88 45.1549 66.8822 45.1149 67.4739 44.5047C67.7504 44.2181 67.8889 43.8531 67.8889 43.4894C67.8889 43.0846 67.7178 42.68 67.3776 42.3837C60.6748 36.5388 49.7696 36.5388 43.0668 42.3837C42.3642 42.9437 42.384 43.895 42.9712 44.5062C43.5649 45.1187 44.5677 45.1562 45.2142 44.5937ZM65.7778 56.9437H56.8056V53.4437C56.8056 52.6156 56.0964 52 55.2816 52C54.4668 52 53.6389 52.6687 53.6389 53.4437V56.9419H36.2222C33.8901 56.9419 32 58.7344 32 60.9437V65.8875C32 68.2062 33.8901 70 36.2222 70H65.7778C68.1099 70 70 68.2094 70 66V61.0562C70 58.7875 68.1066 56.9437 65.7778 56.9437ZM66.8333 65.9437C66.8333 66.4952 66.3598 66.9437 65.7778 66.9437H36.2222C35.6402 66.9437 35.1667 66.495 35.1667 65.9437V60.9431C35.1667 60.3917 35.6402 59.9437 36.2222 59.9437H65.7778C66.3598 59.9437 66.8333 60.3916 66.8333 60.9431V65.9437ZM44.1389 61.9437C43.2648 61.9437 42.5556 62.6156 42.5556 63.4437C42.5556 64.2725 43.2648 64.9437 44.1389 64.9437C45.013 64.9437 45.7222 64.2719 45.7222 63.4437C45.7222 62.6687 45.0163 61.9437 44.1389 61.9437ZM38.8611 61.9437C37.987 61.9437 37.2778 62.6156 37.2778 63.4437C37.2778 64.2725 37.987 64.9437 38.8611 64.9437C39.7352 64.9437 40.4444 64.325 40.4444 63.4437C40.4444 62.6687 39.7385 61.9437 38.8611 61.9437Z" fill="white"/>
</svg>
