<svg width="102" height="91" viewBox="0 0 102 91" fill="none" xmlns="http://www.w3.org/2000/svg">
<path fill-rule="evenodd" clip-rule="evenodd" d="M69.2516 12.2032C70.1998 14.3429 72.1682 16 74.5085 16H92C97.5229 16 102 20.4772 102 26V81C102 86.5229 97.5229 91 92 91H10C4.47715 91 0 86.5229 0 81V26C0 20.4772 4.47715 16 10 16H26.4915C28.8318 16 30.8002 14.3429 31.7484 12.2032C34.9337 5.01473 42.1312 0 50.5 0C58.8688 0 66.0663 5.01473 69.2516 12.2032Z" fill="#F15822"/>
<path d="M45.9688 17.568C46.0168 16.284 46.4368 15.294 47.2288 14.598C48.0208 13.902 49.0948 13.554 50.4508 13.554C51.3508 13.554 52.1188 13.71 52.7548 14.022C53.4028 14.334 53.8888 14.76 54.2128 15.3C54.5488 15.84 54.7168 16.446 54.7168 17.118C54.7168 17.91 54.5188 18.558 54.1228 19.062C53.7268 19.554 53.2648 19.89 52.7368 20.07V20.142C53.4208 20.37 53.9608 20.748 54.3568 21.276C54.7528 21.804 54.9508 22.482 54.9508 23.31C54.9508 24.054 54.7768 24.714 54.4288 25.29C54.0928 25.854 53.5948 26.298 52.9348 26.622C52.2868 26.946 51.5128 27.108 50.6128 27.108C49.1728 27.108 48.0208 26.754 47.1568 26.046C46.3048 25.338 45.8548 24.27 45.8068 22.842H48.7948C48.8068 23.37 48.9568 23.79 49.2448 24.102C49.5328 24.402 49.9528 24.552 50.5048 24.552C50.9728 24.552 51.3328 24.42 51.5848 24.156C51.8488 23.88 51.9808 23.52 51.9808 23.076C51.9808 22.5 51.7948 22.086 51.4228 21.834C51.0628 21.57 50.4808 21.438 49.6768 21.438H49.1008V18.936H49.6768C50.2888 18.936 50.7808 18.834 51.1528 18.63C51.5368 18.414 51.7288 18.036 51.7288 17.496C51.7288 17.064 51.6088 16.728 51.3688 16.488C51.1288 16.248 50.7988 16.128 50.3788 16.128C49.9228 16.128 49.5808 16.266 49.3528 16.542C49.1368 16.818 49.0108 17.16 48.9748 17.568H45.9688Z" fill="white"/>
<path d="M49 46H53C54.1044 46 55 45.1044 55 44V40C55 38.8956 54.1044 38 53 38H49C47.8938 38 47 38.8956 47 40V44C47 45.1062 47.8938 46 49 46ZM51 57C53.2094 57 55 55.2094 55 53C55 50.7906 53.2094 49 51 49C48.7906 49 47 50.7906 47 53C47 55.2062 48.7937 57 51 57ZM65 42H57V45H65C65.5514 45 66 45.4486 66 46V66C66 66.5514 65.5514 67 65 67H37C36.4486 67 36 66.5514 36 66V46C36 45.4486 36.4486 45 37 45H45V42H37C34.7906 42 33 43.7906 33 46V66C33 68.2094 34.7906 70 37 70H65C67.2094 70 69 68.2094 69 66V46C69 43.7906 67.2062 42 65 42ZM45 65H57C57.5522 65 58 64.5522 58 64C58 61.2388 55.7612 59 53 59H49C46.2388 59 44 61.2388 44 64C44 64.55 44.45 65 45 65Z" fill="white"/>
</svg>
