<svg width="102" height="91" viewBox="0 0 102 91" fill="none" xmlns="http://www.w3.org/2000/svg">
<path fill-rule="evenodd" clip-rule="evenodd" d="M69.2516 12.2032C70.1998 14.3429 72.1682 16 74.5085 16H92C97.5229 16 102 20.4772 102 26V81C102 86.5229 97.5229 91 92 91H10C4.47715 91 0 86.5229 0 81V26C0 20.4772 4.47715 16 10 16H26.4915C28.8318 16 30.8002 14.3429 31.7484 12.2032C34.9337 5.01473 42.1312 0 50.5 0C58.8688 0 66.0663 5.01473 69.2516 12.2032Z" fill="#F15822"/>
<path d="M48.6022 16.722V13.86H53.5882V27H50.3842V16.722H48.6022Z" fill="white"/>
<path d="M65.5489 47H61.3144C61.5898 46.3875 61.75 45.7125 61.75 45C61.75 42.2594 59.463 40 56.657 40C54.5558 40 53.1336 40.9431 51.5 42.9344C49.8664 40.9431 48.4442 40 46.343 40C43.537 40 41.25 42.2594 41.25 45C41.25 45.7125 41.4105 46.3869 41.6884 47H37.15C33.7534 47 31 50.0294 31 55C31 59.9706 33.7534 64 37.15 64L47.4 61.8569V66.9981C47.4 67.1844 47.4612 67.3431 47.5452 67.4859C47.5687 67.5262 47.5951 67.5582 47.6238 67.5943C47.7035 67.6951 47.7973 67.7772 47.9081 67.8414C47.9406 67.8602 47.9659 67.8836 48.0002 67.899C48.1367 67.9625 48.2777 68 48.4314 68C48.4467 68 48.4619 67.9937 48.4772 67.9927C48.4992 67.9917 48.519 67.9853 48.541 67.9829C48.7132 67.9644 48.8857 67.9128 49.0424 67.7981L51.5 65.9438L53.96 67.7425C54.1166 67.8573 54.2892 67.9088 54.4614 67.9273C54.4834 67.9298 54.5031 67.9361 54.5252 67.9371C54.543 67.9937 54.5558 68 54.5686 68C54.7191 68 54.8628 67.96 54.9974 67.8992C55.0318 67.8838 55.0573 67.8604 55.0898 67.8413C55.2006 67.7769 55.2945 67.6953 55.3742 67.5943C55.4027 67.5581 55.4289 67.5264 55.4523 67.4863C55.5359 67.3438 55.6 67.1313 55.6 66.9438V61.8213L65.5489 64C69.1108 64 72 59.9688 72 55C72 50.0312 69.1108 47 65.5489 47ZM56.657 43.0294C57.7717 43.0294 58.675 43.9119 58.675 45C58.675 46.0881 57.7711 46.9706 56.6551 46.9706H52.3072C54.9081 43.1919 55.6512 43.0294 56.657 43.0294ZM46.343 43.0294C47.3481 43.0294 48.09 43.1919 50.6902 46.9706H46.343C45.2283 46.9688 44.325 46.0875 44.325 45C44.325 43.9125 45.2283 43.0294 46.343 43.0294ZM46.753 58.925L36.9258 60.9788C35.6951 60.7313 34.075 58.4562 34.075 55C34.075 52.0562 35.3396 50 37.15 50H46.4134L46.3942 49.9688H47.4V58.7875L46.753 58.925ZM65.7859 60.9813L55.6 58.8062V49.9688H56.6026L56.5866 50H65.5425C67.5669 50 68.925 52.0063 68.925 55C68.925 58.2625 67.317 60.7375 65.7859 60.9813Z" fill="white"/>
</svg>
