<svg width="102" height="91" viewBox="0 0 102 91" fill="none" xmlns="http://www.w3.org/2000/svg">
<path fill-rule="evenodd" clip-rule="evenodd" d="M69.2516 12.2032C70.1998 14.3429 72.1682 16 74.5085 16H92C97.5229 16 102 20.4772 102 26V81C102 86.5229 97.5229 91 92 91H10C4.47715 91 0 86.5229 0 81V26C0 20.4772 4.47715 16 10 16H26.4915C28.8318 16 30.8002 14.3429 31.7484 12.2032C34.9337 5.01473 42.1312 0 50.5 0C58.8688 0 66.0663 5.01473 69.2516 12.2032Z" fill="#F15822"/>
<path d="M45.2912 24.66V22.176L50.9792 14.04H54.4172V21.996H55.8932V24.66H54.4172V27H51.3392V24.66H45.2912ZM51.5552 17.424L48.5312 21.996H51.5552V17.424Z" fill="white"/>
<path d="M41 58C44.3138 58 47 55.3137 47 52C47 48.6862 44.3138 46 41 46C37.6312 46 35 48.6313 35 52C35 55.3125 37.6312 58 41 58ZM41 49C42.6544 49 44 50.3456 44 52C44 53.6544 42.6562 55 41 55C39.3438 55 38 53.6562 38 52C38 50.3438 39.3438 49 41 49ZM43 60H39C34.5819 60 31 63.5812 31 68C31 69.1044 31.8956 70 33 70H49C50.1044 70 51 69.1044 51 68C51 63.5812 47.4188 60 43 60ZM34.1006 67C34.565 64.7188 36.5856 63 39 63H43C45.4144 63 47.435 64.7206 47.8994 67H34.1006ZM67.5 38H44.5C42.5688 38 41 39.57 41 41.5V43C41 43.8281 41.6719 44.5 42.5 44.5C43.3281 44.5 44 43.8281 44 43V41.5C44 41.2246 44.2246 41 44.5 41H67.5C67.7754 41 68 41.2246 68 41.5V60.5C68 60.7754 67.7754 61 67.5 61H53C52.1719 61 51.5 61.6719 51.5 62.5C51.5 63.3281 52.175 64 53 64H67.5C69.43 64 71 62.43 71 60.5V41.5C71 39.57 69.4313 38 67.5 38ZM51.5063 48.4375C50.9203 47.8516 49.9688 47.8516 49.3825 48.4375C48.7962 49.0234 48.7979 49.9738 49.3838 50.56L53.8825 55.0613C54.2312 55.3563 54.6125 55.5 55 55.5C55.3875 55.5 55.7687 55.3548 56.0619 55.0619L62 49.1187V50.5C62 51.3313 62.675 52 63.5 52C64.325 52 65 51.3313 65 50.5V45.5C65 44.675 64.3312 44 63.5 44H58.5C57.675 44 57 44.675 57 45.5C57 46.325 57.6719 47 58.5 47H59.8787L55 51.875L51.5063 48.4375Z" fill="white"/>
</svg>
