<svg width="163" height="27" viewBox="0 0 163 27" fill="none" xmlns="http://www.w3.org/2000/svg">
<rect opacity="0.4" y="15" width="163" height="12" rx="3" fill="#F15822"/>
<path d="M10.978 20.126C10.054 20.126 9.22604 19.976 8.49404 19.676C7.76204 19.376 7.17404 18.932 6.73004 18.344C6.29804 17.756 6.07004 17.048 6.04604 16.22H9.32204C9.37004 16.688 9.53204 17.048 9.80804 17.3C10.084 17.54 10.444 17.66 10.888 17.66C11.344 17.66 11.704 17.558 11.968 17.354C12.232 17.138 12.364 16.844 12.364 16.472C12.364 16.16 12.256 15.902 12.04 15.698C11.836 15.494 11.578 15.326 11.266 15.194C10.966 15.062 10.534 14.912 9.97004 14.744C9.15404 14.492 8.48804 14.24 7.97204 13.988C7.45604 13.736 7.01204 13.364 6.64004 12.872C6.26804 12.38 6.08204 11.738 6.08204 10.946C6.08204 9.77 6.50804 8.852 7.36004 8.192C8.21204 7.52 9.32204 7.184 10.69 7.184C12.082 7.184 13.204 7.52 14.056 8.192C14.908 8.852 15.364 9.776 15.424 10.964H12.094C12.07 10.556 11.92 10.238 11.644 10.01C11.368 9.77 11.014 9.65 10.582 9.65C10.21 9.65 9.91004 9.752 9.68204 9.956C9.45404 10.148 9.34004 10.43 9.34004 10.802C9.34004 11.21 9.53204 11.528 9.91604 11.756C10.3 11.984 10.9 12.23 11.716 12.494C12.532 12.77 13.192 13.034 13.696 13.286C14.212 13.538 14.656 13.904 15.028 14.384C15.4 14.864 15.586 15.482 15.586 16.238C15.586 16.958 15.4 17.612 15.028 18.2C14.668 18.788 14.14 19.256 13.444 19.604C12.748 19.952 11.926 20.126 10.978 20.126ZM26.9483 14.816C26.9483 15.104 26.9303 15.404 26.8943 15.716H19.9283C19.9763 16.34 20.1743 16.82 20.5223 17.156C20.8823 17.48 21.3203 17.642 21.8363 17.642C22.6043 17.642 23.1383 17.318 23.4383 16.67H26.7143C26.5463 17.33 26.2403 17.924 25.7963 18.452C25.3643 18.98 24.8183 19.394 24.1583 19.694C23.4983 19.994 22.7603 20.144 21.9443 20.144C20.9603 20.144 20.0843 19.934 19.3163 19.514C18.5483 19.094 17.9483 18.494 17.5163 17.714C17.0843 16.934 16.8683 16.022 16.8683 14.978C16.8683 13.934 17.0783 13.022 17.4983 12.242C17.9303 11.462 18.5303 10.862 19.2983 10.442C20.0663 10.022 20.9483 9.812 21.9443 9.812C22.9163 9.812 23.7803 10.016 24.5363 10.424C25.2923 10.832 25.8803 11.414 26.3003 12.17C26.7323 12.926 26.9483 13.808 26.9483 14.816ZM23.7983 14.006C23.7983 13.478 23.6183 13.058 23.2583 12.746C22.8983 12.434 22.4483 12.278 21.9083 12.278C21.3923 12.278 20.9543 12.428 20.5943 12.728C20.2463 13.028 20.0303 13.454 19.9463 14.006H23.7983ZM38.0401 14.816C38.0401 15.104 38.0221 15.404 37.9861 15.716H31.0201C31.0681 16.34 31.2661 16.82 31.6141 17.156C31.9741 17.48 32.4121 17.642 32.9281 17.642C33.6961 17.642 34.2301 17.318 34.5301 16.67H37.8061C37.6381 17.33 37.3321 17.924 36.8881 18.452C36.4561 18.98 35.9101 19.394 35.2501 19.694C34.5901 19.994 33.8521 20.144 33.0361 20.144C32.0521 20.144 31.1761 19.934 30.4081 19.514C29.6401 19.094 29.0401 18.494 28.6081 17.714C28.1761 16.934 27.9601 16.022 27.9601 14.978C27.9601 13.934 28.1701 13.022 28.5901 12.242C29.0221 11.462 29.6221 10.862 30.3901 10.442C31.1581 10.022 32.0401 9.812 33.0361 9.812C34.0081 9.812 34.8721 10.016 35.6281 10.424C36.3841 10.832 36.9721 11.414 37.3921 12.17C37.8241 12.926 38.0401 13.808 38.0401 14.816ZM34.8901 14.006C34.8901 13.478 34.7101 13.058 34.3501 12.746C33.9901 12.434 33.5401 12.278 33.0001 12.278C32.4841 12.278 32.0461 12.428 31.6861 12.728C31.3381 13.028 31.1221 13.454 31.0381 14.006H34.8901ZM49.6523 9.848C50.8043 9.848 51.7283 10.232 52.4243 11C53.1203 11.756 53.4683 12.8 53.4683 14.132V20H50.4083V14.546C50.4083 13.874 50.2343 13.352 49.8863 12.98C49.5383 12.608 49.0703 12.422 48.4823 12.422C47.8943 12.422 47.4263 12.608 47.0783 12.98C46.7303 13.352 46.5563 13.874 46.5563 14.546V20H43.4783V6.68H46.5563V11.306C46.8683 10.862 47.2943 10.508 47.8343 10.244C48.3743 9.98 48.9803 9.848 49.6523 9.848ZM60.1792 20.144C59.1952 20.144 58.3072 19.934 57.5152 19.514C56.7352 19.094 56.1172 18.494 55.6612 17.714C55.2172 16.934 54.9952 16.022 54.9952 14.978C54.9952 13.946 55.2232 13.04 55.6792 12.26C56.1352 11.468 56.7592 10.862 57.5512 10.442C58.3432 10.022 59.2312 9.812 60.2152 9.812C61.1992 9.812 62.0872 10.022 62.8792 10.442C63.6712 10.862 64.2952 11.468 64.7512 12.26C65.2072 13.04 65.4352 13.946 65.4352 14.978C65.4352 16.01 65.2012 16.922 64.7332 17.714C64.2772 18.494 63.6472 19.094 62.8432 19.514C62.0512 19.934 61.1632 20.144 60.1792 20.144ZM60.1792 17.48C60.7672 17.48 61.2652 17.264 61.6732 16.832C62.0932 16.4 62.3032 15.782 62.3032 14.978C62.3032 14.174 62.0992 13.556 61.6912 13.124C61.2952 12.692 60.8032 12.476 60.2152 12.476C59.6152 12.476 59.1172 12.692 58.7212 13.124C58.3252 13.544 58.1272 14.162 58.1272 14.978C58.1272 15.782 58.3192 16.4 58.7032 16.832C59.0992 17.264 59.5912 17.48 60.1792 17.48ZM81.4861 9.956L78.7681 20H75.3661L73.7821 13.484L72.1441 20H68.7601L66.0241 9.956H69.1021L70.5241 17.138L72.2161 9.956H75.4741L77.1841 17.102L78.5881 9.956H81.4861ZM88.0224 8.912C87.4824 8.912 87.0384 8.756 86.6904 8.444C86.3544 8.12 86.1864 7.724 86.1864 7.256C86.1864 6.776 86.3544 6.38 86.6904 6.068C87.0384 5.744 87.4824 5.582 88.0224 5.582C88.5504 5.582 88.9824 5.744 89.3184 6.068C89.6664 6.38 89.8404 6.776 89.8404 7.256C89.8404 7.724 89.6664 8.12 89.3184 8.444C88.9824 8.756 88.5504 8.912 88.0224 8.912ZM89.5524 9.956V20H86.4744V9.956H89.5524ZM97.381 17.39V20H95.815C94.699 20 93.829 19.73 93.205 19.19C92.581 18.638 92.269 17.744 92.269 16.508V12.512H91.045V9.956H92.269V7.508H95.347V9.956H97.363V12.512H95.347V16.544C95.347 16.844 95.419 17.06 95.563 17.192C95.707 17.324 95.947 17.39 96.283 17.39H97.381ZM117.328 9.956L114.61 20H111.208L109.624 13.484L107.986 20H104.602L101.866 9.956H104.944L106.366 17.138L108.058 9.956H111.316L113.026 17.102L114.43 9.956H117.328ZM123.074 20.144C122.09 20.144 121.202 19.934 120.41 19.514C119.63 19.094 119.012 18.494 118.556 17.714C118.112 16.934 117.89 16.022 117.89 14.978C117.89 13.946 118.118 13.04 118.574 12.26C119.03 11.468 119.654 10.862 120.446 10.442C121.238 10.022 122.126 9.812 123.11 9.812C124.094 9.812 124.982 10.022 125.774 10.442C126.566 10.862 127.19 11.468 127.646 12.26C128.102 13.04 128.33 13.946 128.33 14.978C128.33 16.01 128.096 16.922 127.628 17.714C127.172 18.494 126.542 19.094 125.738 19.514C124.946 19.934 124.058 20.144 123.074 20.144ZM123.074 17.48C123.662 17.48 124.16 17.264 124.568 16.832C124.988 16.4 125.198 15.782 125.198 14.978C125.198 14.174 124.994 13.556 124.586 13.124C124.19 12.692 123.698 12.476 123.11 12.476C122.51 12.476 122.012 12.692 121.616 13.124C121.22 13.544 121.022 14.162 121.022 14.978C121.022 15.782 121.214 16.4 121.598 16.832C121.994 17.264 122.486 17.48 123.074 17.48ZM133.041 11.63C133.401 11.078 133.851 10.646 134.391 10.334C134.931 10.01 135.531 9.848 136.191 9.848V13.106H135.345C134.577 13.106 134.001 13.274 133.617 13.61C133.233 13.934 133.041 14.51 133.041 15.338V20H129.963V9.956H133.041V11.63ZM143.8 20L140.74 15.788V20H137.662V6.68H140.74V14.042L143.782 9.956H147.58L143.404 14.996L147.616 20H143.8ZM152.875 20.144C151.999 20.144 151.219 19.994 150.535 19.694C149.851 19.394 149.311 18.986 148.915 18.47C148.519 17.942 148.297 17.354 148.249 16.706H151.291C151.327 17.054 151.489 17.336 151.777 17.552C152.065 17.768 152.419 17.876 152.839 17.876C153.223 17.876 153.517 17.804 153.721 17.66C153.937 17.504 154.045 17.306 154.045 17.066C154.045 16.778 153.895 16.568 153.595 16.436C153.295 16.292 152.809 16.136 152.137 15.968C151.417 15.8 150.817 15.626 150.337 15.446C149.857 15.254 149.443 14.96 149.095 14.564C148.747 14.156 148.573 13.61 148.573 12.926C148.573 12.35 148.729 11.828 149.041 11.36C149.365 10.88 149.833 10.502 150.445 10.226C151.069 9.95 151.807 9.812 152.659 9.812C153.919 9.812 154.909 10.124 155.629 10.748C156.361 11.372 156.781 12.2 156.889 13.232H154.045C153.997 12.884 153.841 12.608 153.577 12.404C153.325 12.2 152.989 12.098 152.569 12.098C152.209 12.098 151.933 12.17 151.741 12.314C151.549 12.446 151.453 12.632 151.453 12.872C151.453 13.16 151.603 13.376 151.903 13.52C152.215 13.664 152.695 13.808 153.343 13.952C154.087 14.144 154.693 14.336 155.161 14.528C155.629 14.708 156.037 15.008 156.385 15.428C156.745 15.836 156.931 16.388 156.943 17.084C156.943 17.672 156.775 18.2 156.439 18.668C156.115 19.124 155.641 19.484 155.017 19.748C154.405 20.012 153.691 20.144 152.875 20.144Z" fill="#333333"/>
</svg>
