<svg width="106" height="106" viewBox="0 0 106 106" fill="none" xmlns="http://www.w3.org/2000/svg">
<path d="M6.625 92.75C2.96676 92.75 0 95.7168 0 99.375C0 103.033 2.96676 106 6.625 106C10.2832 106 13.25 103.033 13.25 99.375C13.25 95.7105 10.2832 92.75 6.625 92.75ZM29.8125 79.5C24.3262 79.5 19.875 83.9512 19.875 89.4375C19.875 94.9238 24.3262 99.375 29.8125 99.375C35.2988 99.375 39.75 94.9238 39.75 89.4375C39.75 83.9512 35.2988 79.5 29.8125 79.5ZM76.643 13.2666C71.3844 5.00395 62.4406 0 52.5859 0C42.9176 0 34.0566 4.89422 28.7566 12.9684C12.8194 13.4156 0 26.5828 0 42.7727C0 61.2813 16.8586 76.3324 35.7336 71.9434C40.0191 76.7258 46.0852 79.5 52.5859 79.5C59.0308 79.5 65.0658 76.7755 69.3472 72.0634C71.6908 72.6659 74.0592 72.9704 76.4152 72.9704C92.7293 72.9785 106 59.5422 106 43.0832C106 26.6863 92.8535 13.3929 76.643 13.2666ZM69.3348 61.6332C67.1837 60.7846 64.6993 61.5911 63.4282 63.5669C61.0204 67.3141 56.9646 69.5501 52.5797 69.5501C48.1824 69.5501 44.1246 67.2996 41.7106 63.5317C40.7862 62.0806 39.2076 61.4407 37.57 61.4407C37.0306 61.4407 36.4915 61.5281 35.9586 61.7127C33.684 62.3164 31.6137 62.7098 29.5848 62.7098C18.7094 62.7098 9.86297 53.7826 9.86297 42.8079C9.86297 31.8704 18.6514 22.9618 29.9367 22.9618C29.9688 22.9618 30.0073 22.9651 30.0458 22.9651L31.0922 23.0849C33.0886 23.2534 34.9512 22.1748 35.8498 20.3935C39.1229 13.9507 45.5368 9.95085 52.5924 9.95085C59.8012 9.95085 66.2792 14.0646 69.4944 20.6854C70.3996 22.5479 72.3514 23.6625 74.4114 23.4452L75.4128 23.3221C75.7465 23.2767 76.0741 23.2184 76.4206 23.2184C87.296 23.2184 96.1424 32.1456 96.1424 43.1203C96.1453 56.4367 82.7711 66.8504 69.3348 61.6332Z" fill="#F15822"/>
</svg>
